<svg width="256" height="43" viewBox="0 0 256 43" fill="none" xmlns="http://www.w3.org/2000/svg">
<path d="M26.472 2.4L31.704 18.96L46.968 2.4H54.648L44.76 34.704C44.184 36.48 44.664 37.632 46.056 37.632C46.68 37.632 47.4 37.296 48.216 36.528L50.088 38.688C48.888 40.128 46.632 42.144 43.32 42.144C39.096 42.144 36.216 39.024 38.376 31.968L44.04 13.344L29.256 29.376H28.728L23.736 13.344L16.824 36H9.576L18.648 6.24C17.4 5.904 16.248 5.712 15.192 5.712C10.2 5.712 7.512 9.312 7.512 13.536C7.512 15.888 8.328 18.144 10.056 20.448L4.872 24.624C1.992 21.312 0.6 17.616 0.6 14.064C0.6 7.104 6.024 1.008 14.424 1.008C16.536 1.008 18.984 1.44 21.624 2.4H26.472ZM72.132 11.52H79.14L74.004 28.368C73.524 29.904 73.428 31.536 74.868 31.536C77.028 31.536 79.86 27.84 82.5 22.464C83.412 22.512 84.756 23.232 85.236 23.808C81.924 31.056 77.412 36.432 71.94 36.432C68.82 36.432 67.38 34.752 66.948 32.496C65.316 34.464 62.676 36.432 59.268 36.432C53.22 36.432 51.78 31.44 53.412 26.208L57.876 11.52H64.884L60.468 26.064C59.7 28.512 59.892 30.624 62.436 30.624C64.308 30.624 65.94 29.232 67.284 27.504L72.132 11.52ZM90.6626 36.576C83.6546 36.576 78.9026 31.824 78.9026 26.976C78.9026 22.944 81.6386 21.552 83.3666 21.84C85.1426 18.48 87.2546 13.488 88.5026 9.696L94.1186 10.944C95.9426 16.8 100.263 21.552 100.263 27.264C100.263 28.512 100.071 29.712 99.6866 30.816C102.327 28.944 104.103 26.064 105.879 22.464C106.791 22.512 108.135 23.232 108.615 23.808C105.303 31.056 100.503 36.576 90.6626 36.576ZM93.1106 27.168C93.1106 23.808 90.7106 20.016 89.3666 15.936C88.3586 18.432 87.2066 20.928 86.0066 23.232C86.5826 23.904 86.9666 24.768 86.9666 25.728C86.9666 27.168 86.1506 28.416 84.9986 29.088C85.3826 30.72 86.8706 31.968 88.9346 31.968C91.3826 31.968 93.1106 30.144 93.1106 27.168ZM109.157 11.52H116.165L111.173 27.84C110.549 29.904 110.837 31.536 112.709 31.536C115.397 31.536 117.989 27.936 120.677 22.464C121.589 22.512 122.933 23.232 123.413 23.808C120.005 31.248 115.781 36.432 109.973 36.432C104.357 36.432 102.965 31.776 104.645 26.208L109.157 11.52ZM110.645 4.656C110.645 2.352 112.421 0.48 114.725 0.48C117.077 0.48 118.853 2.352 118.853 4.656C118.853 6.96 117.077 8.736 114.725 8.736C112.421 8.736 110.645 6.96 110.645 4.656ZM133.763 19.632C133.763 18.384 134.339 17.232 135.299 16.512C134.915 16.32 134.435 16.224 133.859 16.224C130.307 16.224 126.899 20.64 126.899 25.344C126.899 29.28 129.203 31.728 133.235 31.728C137.795 31.728 142.403 28.416 145.331 22.464C146.243 22.512 147.587 23.232 148.067 23.808C144.755 31.056 139.283 36.576 131.027 36.576C123.923 36.576 119.411 32.544 119.411 25.968C119.411 18.816 124.787 11.088 133.379 11.088C139.379 11.088 142.163 14.784 142.163 18.24C142.163 20.832 140.579 23.52 137.651 23.52C135.491 23.52 133.763 21.792 133.763 19.632ZM155.827 36L164.899 6.24C163.651 5.904 162.499 5.712 161.395 5.712C156.403 5.712 153.715 9.312 153.715 13.536C153.715 15.888 154.579 18.144 156.259 20.448L151.123 24.624C148.195 21.312 146.803 17.616 146.803 14.064C146.803 7.104 152.227 1.008 160.627 1.008C162.787 1.008 165.187 1.44 167.827 2.4H173.299L169.123 15.984H182.611L186.787 2.4H193.987L184.147 34.704C183.619 36.48 184.051 37.632 185.395 37.632C186.067 37.632 186.787 37.296 187.603 36.528L189.475 38.688C188.275 40.128 186.019 42.144 182.707 42.144C178.483 42.144 175.555 39.024 177.715 31.968L180.979 21.216H167.539L163.027 36H155.827ZM212.713 11.52H219.721L214.585 28.368C214.057 30 213.961 31.536 215.449 31.536C217.609 31.536 220.393 27.84 223.033 22.464C223.945 22.512 225.289 23.232 225.769 23.808C222.457 31.056 217.993 36.432 212.521 36.432C209.401 36.432 207.961 34.752 207.529 32.544C205.369 34.944 202.585 36.432 199.561 36.432C194.761 36.432 191.545 33.264 191.545 27.648C191.545 19.632 197.305 11.088 204.889 11.088C207.913 11.088 210.313 12.624 211.513 15.408L212.713 11.52ZM209.209 21.6C209.209 19.056 207.769 17.568 205.657 17.568C202.345 17.568 198.985 22.368 198.985 26.544C198.985 29.136 200.329 30.624 202.441 30.624C205.849 30.624 209.209 25.824 209.209 21.6ZM229.13 2.4H236.138L228.314 27.84C227.69 29.904 227.978 31.536 229.85 31.536C232.538 31.536 235.13 27.936 237.818 22.464C238.73 22.512 240.074 23.232 240.554 23.808C237.146 31.248 232.922 36.432 227.114 36.432C221.498 36.432 220.058 31.776 221.786 26.208L229.13 2.4ZM243.896 2.4H250.904L243.08 27.84C242.456 29.904 242.743 31.536 244.616 31.536C247.304 31.536 249.896 27.936 252.584 22.464C253.496 22.512 254.84 23.232 255.32 23.808C251.912 31.248 247.688 36.432 241.88 36.432C236.264 36.432 234.823 31.776 236.552 26.208L243.896 2.4Z" fill="#35A6D7"/>
</svg>
