<svg width="212" height="364" viewBox="0 0 212 364" fill="none" xmlns="http://www.w3.org/2000/svg">
<path d="M147.5 308.5C147.5 323.633 139.323 337.372 126.026 347.344C112.729 357.317 94.3368 363.5 74 363.5C53.6632 363.5 35.2709 357.317 21.9741 347.344C8.67744 337.372 0.5 323.633 0.5 308.5C0.5 293.367 8.67744 279.628 21.9741 269.656C35.2709 259.683 53.6632 253.5 74 253.5C94.3368 253.5 112.729 259.683 126.026 269.656C139.323 279.628 147.5 293.367 147.5 308.5Z" fill="#35A6D7" stroke="#35A6D7"/>
<line x1="136.533" y1="316" x2="136.533" y2="35" stroke="#35A6D7" stroke-width="21"/>
<path d="M136.35 44.0896C136.35 37.5896 136.35 30.0896 138.349 23C140.503 17.4608 142.175 12.5119 148.5 11.4999C152.577 10.8476 156.003 11.3425 157.5 16C158.304 18.5 160.397 21.871 162.5 24.5C165.709 28.5107 169.534 32.151 174.713 33.5712C186.77 36.8772 195.342 27.1728 200.552 17.6222" stroke="#35A6D7" stroke-width="21" stroke-linecap="round"/>
<path d="M99.182 312.182C100.939 310.425 100.939 307.575 99.182 305.818L70.5442 277.18C68.7868 275.423 65.9376 275.423 64.1802 277.18C62.4228 278.938 62.4228 281.787 64.1802 283.544L89.636 309L64.1802 334.456C62.4228 336.213 62.4228 339.062 64.1802 340.82C65.9376 342.577 68.7868 342.577 70.5442 340.82L99.182 312.182ZM94 313.5H96V304.5H94V313.5Z" fill="#F7EFE5"/>
</svg>
